<?xml version="1.0" encoding="UTF-8" standalone="no"?>
<svg xmlns:xlink="http://www.w3.org/1999/xlink" height="375.95px" width="486.6px" xmlns="http://www.w3.org/2000/svg">
  <g transform="matrix(1.0, 0.0, 0.0, 1.0, 349.35, 227.85)">
    <path d="M-191.05 -151.05 L-185.25 -151.05 -185.15 -113.4 -167.85 -113.4 -167.85 -107.2 -170.1 -104.85 -187.95 -104.85 -191.05 -108.4 -187.5 -108.4 -187.5 -136.15 -191.05 -136.15 -191.05 -151.05 M-183.6 -180.3 L-183.6 -173.25 -195.7 -173.25 -195.7 -165.8 -192.55 -162.6 -192.55 -107.45 -188.55 -103.35 -169.5 -103.35 -156.0 -117.25 -143.5 -117.25 -143.5 -152.3 -137.25 -152.3 -137.25 -116.1 -122.65 -116.1 -122.65 -101.3 -91.65 -101.3 -91.65 -81.3 -60.95 -81.3 -60.95 -74.1 -49.15 -74.1 -49.15 -90.75 -65.35 -90.75 -65.35 -112.3 -54.0 -112.3 -54.0 -134.15 -72.0 -134.15 -72.0 -143.15 -26.35 -143.15 -26.35 -128.65 -43.7 -128.65 -43.7 -109.5 -26.35 -109.5 -26.35 -95.7 -4.0 -95.7 -50.8 -48.2 -75.3 -48.2 -75.3 -70.65 -90.8 -70.65 -90.75 -17.3 -64.25 -17.3 -64.25 -2.15 -64.0 -2.15 -64.0 -1.0 -51.2 -1.0 -51.2 -0.75 -34.9 -0.75 -23.15 -12.9 -2.15 -12.9 5.05 -5.5 5.05 49.75 8.35 53.15 8.35 70.4 -7.95 70.4 -7.95 63.3 4.15 63.3 4.15 55.9 1.0 52.65 1.0 -2.5 -3.0 -6.6 -22.05 -6.6 -35.55 7.3 -48.0 7.3 -48.0 42.4 -54.25 42.4 -54.25 6.15 -68.9 6.15 -68.9 -8.6 -99.85 -8.6 -99.85 -28.65 -130.6 -28.65 -130.65 -35.8 -142.4 -35.8 -142.4 -19.2 -126.2 -19.2 -126.2 2.4 -131.7 2.4 -131.7 17.15 -119.55 17.15 -119.55 33.25 -165.15 33.25 -165.15 17.4 -147.75 17.4 -147.75 2.2 -165.15 2.2 -165.15 -14.2 -185.6 -14.2 -140.75 -61.7 -116.25 -61.7 -116.25 -39.25 -100.75 -39.25 -100.75 -92.65 -127.3 -92.65 -127.25 -109.3 -156.6 -109.15 -168.4 -97.0 -189.4 -97.0 -196.6 -104.45 -196.6 -159.7 -199.95 -163.1 -199.95 -180.3 -183.6 -180.3 M-194.9 -184.1 L-194.9 -187.9 -176.2 -187.9 -176.2 -166.45 -194.2 -166.45 -194.2 -171.7 -182.1 -171.75 -182.1 -181.8 -184.8 -181.8 -184.8 -184.1 -194.9 -184.1 M-170.3 -189.4 L-170.3 -192.95 -201.4 -192.9 -201.4 -162.45 -198.1 -159.05 -198.05 -103.8 -190.0 -95.5 -167.75 -95.5 -156.0 -107.6 -141.8 -107.6 -141.8 -89.55 -155.55 -75.4 -161.8 -75.4 -146.45 -91.15 -146.45 -104.1 -154.15 -104.1 -165.7 -92.25 -192.35 -92.25 -203.1 -103.3 -203.1 -157.15 -207.35 -161.45 -207.35 -197.5 -244.55 -197.5 -244.55 -181.8 -252.35 -181.8 -252.35 -200.5 -201.75 -200.5 -201.75 -195.95 -160.5 -195.95 -160.5 -189.4 -170.3 -189.4 M-160.5 -207.55 L-160.5 -197.5 -170.55 -197.5 -170.55 -203.3 -201.5 -203.3 -201.5 -202.0 -253.85 -202.0 -253.85 -180.3 -243.05 -180.3 -243.05 -192.5 -236.65 -192.5 -236.65 -180.3 -208.85 -180.3 -208.85 -174.25 -236.65 -174.25 -236.65 -156.1 -204.6 -156.1 -204.6 -102.65 -192.0 -89.6 -155.3 -89.6 -155.3 -100.8 -153.5 -102.6 -147.95 -102.6 -147.95 -91.8 -153.9 -85.65 -198.05 -85.65 -198.05 -75.4 -292.8 -75.4 -292.8 -99.05 -216.0 -99.1 -216.0 -147.0 -231.25 -147.0 -231.25 -110.15 -298.6 -110.15 -298.6 -149.5 -292.7 -149.5 -292.7 -182.85 -318.75 -182.8 -318.75 -227.8 -309.9 -227.8 -309.9 -193.9 -283.85 -193.9 -283.8 -120.25 -242.55 -120.25 -242.55 -174.25 -257.3 -174.25 -257.3 -207.55 -160.5 -207.55 M-148.7 -205.55 L-141.55 -205.55 -141.55 -168.45 -115.75 -168.45 -115.75 -200.25 -108.15 -200.25 -108.15 -165.65 -80.6 -165.65 -80.6 -159.8 -87.1 -159.8 -87.1 -162.55 -88.95 -162.55 -88.95 -162.65 -117.75 -162.65 -117.75 -162.6 -159.0 -162.6 -159.0 -130.85 -165.4 -130.85 -165.4 -168.2 -148.7 -168.2 -148.7 -205.55 M-171.8 -224.1 L-171.8 -227.85 -127.3 -227.85 -127.3 -222.7 -141.55 -222.7 -141.55 -224.1 -171.8 -224.1 M-185.05 -224.1 L-185.05 -227.85 -173.25 -227.85 -173.25 -224.1 -185.05 -224.1 M-193.4 -227.85 L-193.4 -224.1 -229.8 -224.05 -229.8 -227.85 -224.4 -227.85 -224.4 -227.25 -214.05 -227.25 -214.05 -227.85 -193.4 -227.85 M-191.95 -227.85 L-186.55 -227.85 -186.55 -224.15 -191.95 -224.15 -191.95 -227.85 M-41.85 -227.85 L-41.85 -224.4 -41.6 -224.4 -41.6 -185.8 -27.35 -185.8 -27.35 -171.95 -47.0 -171.95 -47.0 -227.85 -41.85 -227.85 M-26.6 -224.4 L-22.95 -224.4 -22.95 -227.85 -17.05 -227.85 -17.05 -217.35 -26.6 -217.35 -26.6 -224.4 M-93.75 -216.0 L-93.75 -220.95 -70.9 -220.95 -70.9 -227.85 -48.5 -227.85 -48.5 -171.95 -77.55 -171.9 -77.55 -175.15 -94.5 -175.15 -94.5 -180.45 -60.2 -180.45 -60.2 -189.15 -94.1 -189.1 -94.1 -194.1 -60.2 -194.1 -60.2 -202.8 -94.1 -202.8 -94.1 -206.95 -60.95 -206.95 -60.95 -216.0 -93.75 -216.0 M-95.2 -222.45 L-95.2 -214.5 -62.4 -214.5 -62.4 -208.45 -95.6 -208.45 -95.6 -201.3 -61.65 -201.3 -61.65 -195.6 -95.6 -195.6 -95.6 -187.6 -61.65 -187.6 -61.65 -181.95 -95.95 -181.95 -95.95 -173.65 -80.1 -173.65 -79.95 -166.95 -106.65 -167.15 -106.7 -209.05 -103.45 -209.05 -103.5 -227.85 -72.4 -227.85 -72.4 -222.45 -95.2 -222.45 M-111.55 -227.85 L-104.95 -227.85 -104.95 -211.35 -150.2 -211.35 -150.15 -169.7 -166.85 -169.7 -166.85 -124.3 -153.85 -124.3 -153.85 -160.6 -118.2 -160.6 -118.2 -128.6 -135.8 -128.6 -135.8 -153.8 -147.95 -153.8 -147.95 -118.75 -155.9 -118.75 -157.3 -121.4 -183.6 -121.4 -183.6 -151.05 -174.75 -151.05 -174.75 -177.05 -159.0 -177.05 -159.0 -209.05 -258.8 -209.05 -258.8 -153.05 -274.0 -153.05 -274.0 -217.65 -141.55 -217.55 -141.55 -220.45 -111.55 -220.45 -111.55 -227.85 M-116.75 -151.3 L-100.75 -151.3 -100.75 -128.6 -116.75 -128.6 -116.75 -151.3 M137.25 -64.95 L137.25 -59.9 74.4 -59.9 74.4 -63.4 31.7 -63.4 31.7 -69.5 77.8 -69.5 77.8 -64.95 137.25 -64.95 M39.95 -126.5 L57.2 -126.5 57.15 -158.3 82.25 -158.3 82.25 -138.15 62.6 -138.2 62.55 -120.95 39.95 -120.95 39.95 -126.5 M39.95 -112.35 L39.95 -115.4 61.1 -115.4 61.1 -119.45 64.05 -119.45 64.05 -132.05 82.25 -132.05 82.25 -112.35 39.95 -112.35 M63.05 -196.65 L70.4 -196.65 70.4 -186.05 84.2 -186.05 84.2 -180.0 66.75 -180.0 66.75 -164.15 55.7 -164.15 55.7 -138.65 -2.8 -138.65 -2.8 -150.75 6.55 -150.75 6.55 -142.2 51.25 -142.2 51.25 -166.35 63.05 -166.35 63.05 -196.65 M8.5 -227.85 L16.15 -227.85 16.15 -152.25 -4.25 -152.25 -4.2 -132.3 23.5 -132.3 23.5 -126.5 38.5 -126.5 38.5 -112.35 11.0 -112.35 11.0 -128.0 -9.15 -128.0 -9.15 -158.25 8.5 -158.25 8.5 -227.85 M133.85 -227.85 L137.2 -227.85 137.25 -72.5 122.45 -72.5 122.45 -96.75 110.15 -96.7 110.15 -227.85 132.35 -227.85 132.35 -206.0 118.85 -206.0 118.85 -115.45 137.0 -115.45 137.0 -128.8 120.3 -128.8 120.3 -204.5 133.85 -204.5 133.85 -227.85 M97.95 -227.85 L108.65 -227.85 108.65 -95.2 120.95 -95.2 120.95 -71.0 137.25 -71.0 137.25 -66.45 111.35 -66.45 111.35 -86.75 70.45 -86.75 70.45 -71.0 31.65 -71.0 31.6 -82.1 -9.75 -82.1 -46.3 -44.2 -67.9 -44.2 -67.95 -41.15 -75.3 -41.15 -75.3 -46.7 -50.15 -46.7 -1.85 -95.7 97.95 -95.75 97.95 -227.85 M79.75 -216.3 L89.6 -216.3 89.6 -138.15 83.7 -138.15 83.7 -158.3 85.65 -158.3 85.65 -206.0 79.75 -206.0 79.75 -216.3 M89.6 -217.9 L78.3 -217.9 78.3 -194.15 84.2 -194.15 84.2 -187.6 72.4 -187.6 72.4 -205.25 66.5 -211.3 41.1 -211.3 41.15 -143.65 22.3 -143.7 22.25 -227.85 89.6 -227.85 89.6 -217.9 M-26.6 -206.25 L-26.6 -215.85 -15.55 -215.85 -15.55 -227.85 -12.15 -227.85 -12.15 -206.25 -26.6 -206.25 M-77.75 -153.75 L-77.7 -158.25 -10.65 -158.25 -10.6 -110.85 83.7 -110.85 83.7 -132.05 89.6 -132.05 89.6 -105.3 -14.1 -105.3 -14.1 -153.75 -77.75 -153.75 M-77.8 -144.65 L-77.75 -152.25 -15.55 -152.25 -15.55 -103.8 91.05 -103.8 91.05 -227.85 96.5 -227.85 96.5 -97.25 -2.4 -97.25 -2.45 -97.25 -2.5 -97.25 -24.9 -97.2 -24.9 -144.65 -77.8 -144.65 M-87.1 -144.65 L-87.1 -152.25 -80.6 -152.25 -80.6 -144.65 -87.1 -144.65 M-77.6 -166.35 L-77.6 -170.4 -4.25 -170.4 -4.25 -227.85 0.15 -227.85 0.15 -166.35 -77.6 -166.35 M-77.7 -159.8 L-77.6 -164.85 1.65 -164.85 1.65 -227.85 7.05 -227.85 7.05 -159.85 -77.7 -159.8 M-87.1 -158.25 L-80.6 -158.25 -80.6 -153.75 -87.1 -153.75 -87.1 -158.25 M-26.6 -197.95 L-26.6 -204.7 -10.65 -204.7 -10.65 -227.85 -5.75 -227.85 -5.75 -197.95 -26.6 -197.95 M-139.4 -100.7 L-133.75 -100.7 -133.75 -88.95 -115.35 -88.95 -115.35 -80.65 -139.2 -80.7 -139.4 -100.7 M-121.15 -106.6 L-121.15 -116.1 -111.05 -116.1 -111.05 -111.55 -88.2 -111.55 -88.2 -117.85 -78.6 -117.85 -78.6 -112.3 -66.8 -112.3 -66.8 -89.2 -50.6 -89.25 -50.6 -75.6 -59.45 -75.6 -59.45 -82.8 -90.15 -82.8 -90.15 -106.6 -121.15 -106.6 M109.5 -50.05 L109.5 -37.55 97.35 -37.55 97.35 -50.05 109.5 -50.05 M-32.55 20.9 L-26.15 20.9 -26.15 58.3 -42.85 58.3 -42.85 95.65 -49.95 95.65 -49.95 58.55 -75.8 58.55 -75.8 95.65 -83.4 95.65 -83.4 55.75 -110.9 55.75 -110.9 32.3 -104.45 32.3 -104.45 52.6 -102.55 52.6 -102.55 52.75 -73.8 52.75 -73.8 52.2 -32.55 52.2 -32.55 20.9 M-129.85 77.7 L-129.85 72.05 -95.55 72.0 -95.55 63.7 -111.15 63.7 -110.95 57.0 -84.85 57.3 -84.85 99.15 -88.05 99.15 -88.05 148.05 -96.65 148.05 -96.65 144.3 -129.5 144.3 -129.5 139.05 -96.65 139.05 -96.65 130.35 -129.85 130.35 -129.85 125.4 -96.3 125.4 -96.3 118.25 -129.25 118.25 -129.25 112.55 -96.3 112.55 -96.3 104.55 -129.75 104.55 -129.75 98.55 -95.9 98.55 -95.9 91.35 -129.85 91.35 -129.85 85.65 -95.9 85.65 -95.9 77.7 -129.85 77.7 M-164.9 107.4 L-164.9 114.5 -170.45 114.5 -170.45 137.45 -149.65 137.45 -149.9 75.85 -164.15 75.85 -164.15 62.0 -144.5 62.0 -144.5 148.05 -174.5 148.05 -174.5 107.4 -164.9 107.4 M-179.4 96.35 L-164.9 96.35 -164.9 105.9 -175.95 105.9 -175.95 148.05 -179.4 148.1 -179.4 96.35 M-164.9 88.0 L-164.9 94.8 -180.9 94.8 -180.9 148.1 -185.8 148.1 -185.8 88.0 -164.9 88.0 M-202.5 18.1 L-182.35 18.1 -182.35 48.4 -200.05 48.4 -200.05 148.1 -207.65 148.1 -207.65 42.35 -187.25 42.35 -187.35 22.4 -215.05 22.4 -215.05 16.55 -230.05 16.55 -230.05 2.45 -202.5 2.45 -202.5 18.1 M-198.1 40.8 L-198.1 32.3 -242.8 32.25 -242.8 57.7 -254.6 57.7 -254.6 86.75 -262.0 86.75 -262.0 76.15 -275.7 76.15 -275.7 70.1 -258.3 70.1 -258.3 54.2 -247.25 54.2 -247.25 28.7 -188.75 28.7 -188.75 40.8 -198.1 40.8 M-119.55 34.75 L-119.55 42.3 -175.95 42.3 -176.0 -6.1 -282.65 -6.1 -282.6 148.1 -288.0 148.1 -288.0 -12.7 -166.65 -12.7 -166.65 34.75 -119.55 34.75 M-119.55 56.45 L-119.6 65.25 -97.05 65.25 -97.05 70.5 -131.35 70.5 -131.35 79.25 -97.4 79.25 -97.4 84.15 -131.35 84.15 -131.35 92.85 -97.4 92.85 -97.4 97.05 -131.2 97.05 -131.2 106.15 -97.75 106.15 -97.75 111.05 -130.8 111.05 -130.75 119.75 -97.75 119.75 -97.75 123.9 -131.35 123.9 -131.35 131.85 -98.15 131.85 -98.15 137.5 -130.95 137.55 -130.95 145.85 -98.15 145.85 -98.15 148.05 -143.05 148.05 -143.1 60.5 -187.25 60.5 -187.25 148.1 -191.7 148.1 -191.7 56.45 -119.55 56.45 M-119.55 49.9 L-119.55 54.95 -193.15 54.95 -193.15 148.1 -198.55 148.1 -198.55 49.9 -119.55 49.9 M-119.55 43.85 L-119.55 48.4 -180.9 48.4 -180.9 0.95 -275.25 0.95 -275.25 22.15 -281.15 22.15 -281.15 -4.6 -177.45 -4.6 -177.45 43.85 -119.55 43.85 M-186.8 -67.2 L-186.8 -38.95 -213.7 -38.9 -213.75 -48.0 -262.85 -48.0 -262.85 -61.0 -214.3 -61.1 -214.3 -67.2 -186.8 -67.2 M-116.25 -65.7 L-116.25 -63.2 -141.35 -63.2 -187.65 -14.2 -289.5 -14.2 -289.5 148.1 -303.25 148.1 -303.25 -11.7 -315.55 -11.7 -315.55 -35.9 -349.3 -35.9 -349.3 -43.45 -302.9 -43.45 -302.9 -27.7 -262.0 -27.7 -262.0 -38.9 -223.15 -38.9 -223.15 -27.85 -181.85 -27.85 -145.25 -65.7 -116.25 -65.7 M-137.9 -67.2 L-137.45 -68.75 -116.25 -68.75 -116.25 -67.2 -137.9 -67.2 M-116.25 -72.2 L-116.25 -70.3 -137.0 -70.25 -136.5 -72.2 -116.25 -72.2 M-103.35 1.65 L-103.35 7.95 -112.9 7.95 -112.9 2.4 -124.7 2.4 -124.7 -20.7 -140.95 -20.7 -140.95 -34.3 -132.1 -34.3 -132.1 -27.15 -101.35 -27.15 -101.35 -3.25 -70.4 -3.3 -70.35 6.15 -80.5 6.15 -80.5 1.65 -103.35 1.65 M-75.3 -18.8 L-75.3 -27.15 -51.4 -27.15 -51.2 -7.1 -56.9 -7.1 -56.9 -18.8 -75.3 -18.8 M-67.35 -37.75 L-75.3 -37.75 -75.3 -39.65 -67.4 -39.65 -67.35 -37.75 M78.05 27.75 L78.05 21.45 90.8 21.4 90.8 85.55 116.9 85.55 116.9 126.35 109.7 133.7 87.85 133.7 87.85 139.3 78.6 139.3 78.6 148.05 68.7 148.05 68.7 135.5 79.05 135.5 79.05 120.85 111.0 120.85 111.0 98.15 83.95 98.15 83.95 27.75 78.05 27.75 M76.55 19.9 L76.55 27.75 69.95 27.75 69.95 11.85 90.8 11.85 90.8 19.9 76.55 19.9 M24.0 120.85 L31.35 120.85 31.35 137.5 22.5 137.5 22.5 148.05 1.9 148.05 1.9 131.7 24.0 131.7 24.0 120.85 M47.1 123.9 L56.7 123.9 56.7 130.95 53.5 130.95 53.5 148.05 47.1 148.05 47.1 123.9 M66.25 109.2 L70.4 109.25 70.4 114.05 84.15 114.05 84.15 109.2 88.25 109.2 88.25 114.05 100.9 114.05 100.9 99.65 109.5 99.65 109.5 111.5 105.05 111.5 105.05 119.35 77.55 119.35 77.55 133.95 67.25 133.95 67.25 148.05 59.9 148.05 59.85 124.4 66.25 124.4 66.25 109.2 M39.7 109.25 L45.6 109.25 45.65 148.05 32.85 148.05 32.85 147.1 39.7 147.1 39.7 109.25 M1.9 123.65 L1.9 114.15 38.25 114.15 38.25 145.6 31.4 145.6 31.4 148.05 24.0 148.05 24.0 139.0 32.85 139.0 32.8 117.3 22.5 117.3 22.5 123.65 1.9 123.65 M-5.0 114.2 L0.4 114.2 0.4 148.05 -5.0 148.05 -5.0 114.2 M-6.5 114.15 L-6.5 124.1 -14.1 124.1 -14.1 148.05 -18.75 148.05 -18.25 114.15 -6.5 114.15 M17.3 76.95 L17.3 74.45 40.7 74.45 40.7 71.9 43.65 71.9 43.65 82.65 37.15 82.65 37.15 76.95 17.3 76.95 M2.7 56.5 L2.7 61.8 -9.4 61.8 -9.4 71.9 -6.75 71.9 -6.75 74.15 3.35 74.15 3.35 77.95 -15.35 77.95 -15.35 56.5 2.7 56.5 M-7.95 41.15 L-16.8 41.15 -16.8 67.1 -32.55 67.1 -32.55 99.15 67.25 99.15 67.2 43.15 82.45 43.15 82.45 107.7 -49.95 107.65 -49.95 111.75 -80.05 111.8 -80.0 124.6 -73.3 124.6 -73.3 148.05 -86.55 148.05 -86.6 101.45 -41.4 101.45 -41.4 59.8 -24.65 59.8 -24.65 14.4 -37.7 14.4 -37.7 50.7 -73.3 50.7 -73.35 18.7 -55.75 18.65 -55.75 43.9 -43.6 43.9 -43.6 8.8 -35.65 8.8 -34.25 10.2 -8.0 10.2 -7.95 41.15 M37.85 51.2 L43.65 51.2 43.65 62.85 17.3 62.85 17.3 57.3 37.85 57.3 37.85 51.2 M64.05 20.9 L64.05 27.75 61.85 27.75 61.85 59.8 56.4 59.8 56.4 62.85 52.5 62.85 52.5 50.45 56.3 50.45 56.3 20.9 64.05 20.9 M0.8 -17.7 L11.55 -6.65 11.55 47.25 15.8 51.6 15.8 87.55 53.0 87.55 52.95 71.9 60.85 71.9 60.85 90.55 10.2 90.55 10.2 86.0 -31.05 86.0 -31.05 79.5 -21.25 79.5 -21.25 83.0 9.85 83.0 9.85 52.55 6.55 49.1 6.55 -6.15 -1.5 -14.4 -23.75 -14.4 -35.55 -2.25 -49.75 -2.25 -49.75 -20.4 -35.95 -34.5 -29.7 -34.5 -45.05 -18.75 -45.05 -5.8 -37.4 -5.8 -25.85 -17.7 0.8 -17.7 M-3.6 -5.1 L-0.45 -1.55 -2.8 -1.55 -2.8 20.9 -0.45 20.9 -0.45 41.15 -6.3 41.15 -6.35 3.55 -23.7 3.55 -23.7 -2.7 -21.4 -5.1 -3.6 -5.1 M71.3 -61.9 L71.25 -43.2 22.75 -43.05 22.75 -42.75 -4.75 -42.75 -4.75 -71.0 22.15 -71.0 22.2 -61.9 71.3 -61.9 M101.25 -28.8 L101.25 -10.9 24.45 -10.85 24.45 37.05 39.7 37.05 39.7 0.25 107.0 0.25 107.0 39.6 101.15 39.6 101.15 72.9 127.25 72.9 127.25 131.35 113.25 145.75 113.25 148.05 97.85 148.05 118.4 127.0 118.4 84.0 92.3 84.05 92.3 10.3 51.0 10.3 51.0 64.35 65.75 64.35 65.75 97.65 -31.05 97.65 -31.05 87.55 -21.0 87.55 -21.0 93.35 10.0 93.35 10.0 92.1 62.3 92.1 62.3 70.35 51.5 70.35 51.5 82.65 45.1 82.65 45.1 70.35 17.3 70.4 17.3 64.35 45.1 64.35 45.1 46.15 13.05 46.15 13.05 -7.3 0.45 -20.3 -36.2 -20.3 -36.2 -9.15 -38.0 -7.35 -43.6 -7.35 -43.6 -18.1 -37.65 -24.25 6.55 -24.25 6.55 -28.75 101.25 -28.8 M108.5 11.75 L108.5 -21.05 137.25 -21.05 137.25 133.75 123.25 148.05 114.7 148.05 114.7 146.4 128.7 132.05 128.7 71.4 102.6 71.4 102.6 41.1 108.5 41.1 108.5 30.4 123.7 30.4 123.7 11.75 108.5 11.75 M102.75 -34.5 L107.0 -34.55 107.0 -5.55 80.75 -5.55 80.75 -1.3 64.6 -1.3 64.6 -5.2 38.15 -5.25 38.1 35.55 25.95 35.55 25.95 18.9 32.8 18.9 32.8 -9.35 102.75 -9.35 102.75 -34.5 M-74.8 41.4 L-90.75 41.4 -90.75 18.7 -74.8 18.7 -74.8 41.4 M-265.9 -50.05 L-265.9 -46.5 -223.2 -46.5 -223.2 -40.45 -269.35 -40.45 -269.35 -44.95 -349.3 -44.95 -349.3 -49.85 -265.9 -50.05 M-282.1 -104.3 L-282.1 -108.65 -247.1 -108.65 -247.1 -104.7 -229.7 -104.65 -229.6 -145.5 -217.5 -145.5 -217.5 -128.85 -224.35 -128.85 -224.35 -100.55 -294.3 -100.55 -294.3 -75.4 -298.55 -75.4 -298.6 -104.3 -282.1 -104.3 M-268.1 -137.65 L-261.45 -137.65 -261.45 -121.8 -282.35 -121.8 -282.35 -129.8 -268.1 -129.8 -268.1 -137.65 M-229.4 -167.15 L-229.4 -161.1 -235.2 -161.1 -235.2 -172.7 -208.85 -172.7 -208.85 -167.15 -229.4 -167.15 M-247.95 -172.7 L-244.0 -172.7 -244.0 -160.35 -247.85 -160.35 -247.85 -130.85 -255.6 -130.85 -255.6 -137.65 -253.35 -137.65 -253.35 -169.7 -247.95 -169.7 -247.95 -172.7 M-208.85 -186.85 L-208.85 -184.35 -232.25 -184.35 -232.25 -181.8 -235.2 -181.8 -235.2 -192.5 -228.65 -192.5 -228.65 -186.85 -208.85 -186.85 M-308.4 -227.8 L-302.5 -227.8 -302.5 -208.1 -275.5 -208.1 -275.45 -137.65 -269.55 -137.65 -269.55 -131.35 -282.35 -131.35 -282.35 -195.45 -308.4 -195.45 -308.4 -227.8 M-323.25 -227.2 L-338.75 -227.2 -338.75 -213.8 -324.75 -213.8 -324.7 -183.15 -338.2 -183.15 -338.2 -119.4 -349.35 -108.0 -349.35 -227.8 -320.2 -227.8 -320.2 -181.3 -294.15 -181.3 -294.15 -151.05 -300.05 -151.05 -300.05 -137.6 -319.8 -137.6 -319.8 -118.9 -300.05 -118.9 -300.05 -85.8 -349.3 -85.8 -349.3 -105.85 -336.75 -118.75 -336.75 -181.6 -323.25 -181.6 -323.25 -227.2 M-237.15 -227.85 L-231.25 -227.85 -231.25 -219.15 -237.15 -219.15 -237.15 -227.85 M-275.7 -223.95 L-275.7 -219.15 -279.8 -219.15 -279.8 -223.95 -292.45 -223.95 -292.45 -209.6 -301.05 -209.6 -301.05 -221.4 -296.65 -221.4 -296.65 -227.8 -257.8 -227.85 -257.8 -219.15 -262.0 -219.15 -262.0 -223.95 -275.7 -223.95 M-12.6 148.05 L-12.6 138.25 -6.5 138.25 -6.5 148.05 -12.6 148.05 M125.35 148.05 L137.25 135.85 137.25 148.05 125.35 148.05 M-35.95 144.05 L-35.95 135.0 -19.75 135.0 -19.75 148.05 -64.95 148.05 -64.95 144.05 -35.95 144.05 M-71.85 124.6 L-45.55 124.65 -45.55 127.45 -40.4 127.45 -40.4 132.2 -46.3 132.2 -46.3 142.55 -66.45 142.55 -66.45 148.05 -71.85 148.05 -71.85 124.6 M-64.2 122.85 L-64.2 114.0 -49.95 114.0 -49.95 114.15 -19.75 114.15 -19.75 127.2 -33.25 127.2 -33.25 122.85 -64.2 122.85 M-288.9 -59.85 L-301.05 -59.85 -301.05 -72.35 -288.9 -72.35 -288.9 -59.85 M-281.15 28.2 L-275.25 28.2 -275.25 48.4 -277.2 48.4 -277.2 100.35 -271.3 100.35 -271.3 106.45 -281.15 106.45 -281.15 28.2 M-232.05 33.75 L-220.8 33.75 -220.8 148.1 -281.15 148.1 -281.15 107.95 -269.85 107.95 -269.85 84.25 -275.7 84.25 -275.7 77.65 -263.95 77.65 -263.95 121.45 -258.05 127.45 -232.05 127.45 -232.05 33.75 M-317.05 -10.2 L-304.75 -10.2 -304.75 148.1 -323.9 148.1 -323.9 96.1 -310.35 96.1 -310.4 5.5 -334.75 5.5 -334.75 33.6 -311.85 33.6 -311.85 94.55 -325.35 94.55 -325.35 148.1 -349.3 148.1 -349.3 -34.35 -317.05 -34.35 -317.05 -10.2 M-323.65 -25.8 L-338.2 -25.8 -338.2 -7.1 -323.65 -7.1 -323.65 -25.8 M-254.1 11.05 L-231.5 11.05 -231.5 16.55 -248.75 16.55 -248.7 48.4 -273.75 48.4 -273.75 28.2 -254.15 28.25 -254.1 11.05 M-258.8 5.5 L-258.8 9.5 -266.05 9.5 -266.05 22.15 -273.75 22.15 -273.75 2.45 -231.5 2.45 -231.5 5.5 -258.8 5.5" fill="#002699" fill-rule="evenodd" stroke="none"/>
  </g>
</svg>
